D:\school\WTK\thesis\model\3dpredictsim\Results\Batchsim_tmt_linear_v2\Pog_s1_tmt_bCst_d00_k1000_ig24_pas_GRF.mot
nRows=30
nColumns=19

name D:\school\WTK\thesis\model\3dpredictsim\Results\Batchsim_tmt_linear_v2\Pog_s1_tmt_bCst_d00_k1000_ig24_pas_GRF.mot
datacolumns 19
datarows 30
range 0.0000000000 0.3135419209
endheader
time 	ground_force_vx	ground_force_vy	ground_force_vz	ground_force_px	ground_force_py	ground_force_pz	1_ground_force_vx	1_ground_force_vy	1_ground_force_vz	1_ground_force_px	1_ground_force_py	1_ground_force_pz	ground_torque_x	ground_torque_y	ground_torque_z	1_ground_torque_x	1_ground_torque_y	1_ground_torque_z
        0.0000000000	      -80.5123557654	       61.6338368397	       17.4250100601	        0.1587176212	        0.0000000000	        0.0455514057	      110.1697483974	      462.1568443659	        2.5067869853	       -0.3512863380	        0.0000000000	       -0.0469238012	        0.0000000000	        0.0000000000	        0.0000000000	        0.0000000000	        0.0000000000	        0.0000000000	
        0.0108117904	     -140.9106283853	      142.1951079541	       44.8376483857	        0.1668605124	        0.0000000000	        0.0440166017	       76.2789423423	      361.5303249672	       -3.6722475809	       -0.3366289867	        0.0000000000	       -0.0445838122	        0.0000000000	        0.0000000000	        0.0000000000	        0.0000000000	        0.0000000000	        0.0000000000	
        0.0216235807	      -62.6653050357	      295.9315745294	       18.5634342044	        0.1735298604	        0.0000000000	        0.0425856493	       39.2721062113	      256.7571980898	       -7.2126193436	       -0.3130479134	        0.0000000000	       -0.0402746418	        0.0000000000	        0.0000000000	        0.0000000000	        0.0000000000	        0.0000000000	        0.0000000000	
        0.0324353711	      -61.1788036208	      485.0411611428	       -0.3757695707	        0.1786275860	        0.0000000000	        0.0432438156	       11.9352493236	      173.4872684397	       -8.3500571212	       -0.2819118826	        0.0000000000	       -0.0329211829	        0.0000000000	        0.0000000000	        0.0000000000	        0.0000000000	        0.0000000000	        0.0000000000	
        0.0432471615	     -102.5861667244	      728.8418096783	      -11.6343363649	        0.1885868103	        0.0000000000	        0.0461692343	       -0.1946341706	      139.8800520170	      -11.2134177151	       -0.2725310552	        0.0000000000	       -0.0299243500	        0.0000000000	        0.0000000000	        0.0000000000	        0.0000000000	        0.0000000000	        0.0000000000	
        0.0540589519	     -129.4672028508	      892.6021767295	      -17.7954149427	        0.1955923532	        0.0000000000	        0.0481409380	       -0.9425419944	      106.5167956840	      -12.2878784961	       -0.2719930881	        0.0000000000	       -0.0301008213	        0.0000000000	        0.0000000000	        0.0000000000	        0.0000000000	        0.0000000000	        0.0000000000	
        0.0648707422	     -133.0538843813	      938.7365456872	      -19.3688016320	        0.2004015373	        0.0000000000	        0.0493700416	       -3.9823203952	       68.8118319926	      -11.7338979471	       -0.2715319227	        0.0000000000	       -0.0302458909	        0.0000000000	        0.0000000000	        0.0000000000	        0.0000000000	        0.0000000000	        0.0000000000	
        0.0756825326	     -124.0283075324	      910.6418143419	      -18.9281344142	        0.2041908593	        0.0000000000	        0.0502161949	       -8.5670969206	       28.5388287822	       -6.3150785887	       -0.2718894777	        0.0000000000	       -0.0300748791	        0.0000000000	        0.0000000000	        0.0000000000	        0.0000000000	        0.0000000000	        0.0000000000	
        0.0864943230	     -110.3330616515	      863.2438712056	      -17.6964689069	        0.2078724584	        0.0000000000	        0.0508496690	        0.1670819367	       -0.1676735429	        0.0134545859	        0.0000000000	        0.0000000000	        0.0000000000	        0.0000000000	        0.0000000000	        0.0000000000	        0.0000000000	        0.0000000000	        0.0000000000	
        0.0973061134	      -97.6661089549	      822.1658417224	      -17.4445302755	        0.2122481382	        0.0000000000	        0.0515698025	        0.0004172482	       -0.0003440714	       -0.0000047501	        0.0000000000	        0.0000000000	        0.0000000000	        0.0000000000	        0.0000000000	        0.0000000000	        0.0000000000	        0.0000000000	        0.0000000000	
        0.1081179037	      -90.2578672559	      794.7277345196	      -17.7852822697	        0.2181350664	        0.0000000000	        0.0519794482	        0.0001714306	       -0.0001230535	       -0.0000052662	        0.0000000000	        0.0000000000	        0.0000000000	        0.0000000000	        0.0000000000	        0.0000000000	        0.0000000000	        0.0000000000	        0.0000000000	
        0.1189296941	      -81.6936555328	      760.9851921017	      -17.4284558034	        0.2241913498	        0.0000000000	        0.0521056602	        0.0012621668	       -0.0008117504	       -0.0000493591	        0.0000000000	        0.0000000000	        0.0000000000	        0.0000000000	        0.0000000000	        0.0000000000	        0.0000000000	        0.0000000000	        0.0000000000	
        0.1297414845	      -73.3143976637	      722.9699164502	      -17.0282618741	        0.2300726544	        0.0000000000	        0.0521345313	        0.0085038606	       -0.0050106803	       -0.0003681183	        0.0000000000	        0.0000000000	        0.0000000000	        0.0000000000	        0.0000000000	        0.0000000000	        0.0000000000	        0.0000000000	        0.0000000000	
        0.1405532749	      -65.3621023186	      689.4397586026	      -16.7306933862	        0.2358840916	        0.0000000000	        0.0520597128	       -0.0561759983	        0.0308252323	        0.0025718675	        0.0000000000	        0.0000000000	        0.0000000000	        0.0000000000	        0.0000000000	        0.0000000000	        0.0000000000	        0.0000000000	        0.0000000000	
        0.1513650652	      -57.8416256203	      662.6509246970	      -16.8123757667	        0.2414844740	        0.0000000000	        0.0519772893	       -0.0398127081	        0.0205668235	        0.0018989649	        0.0000000000	        0.0000000000	        0.0000000000	        0.0000000000	        0.0000000000	        0.0000000000	        0.0000000000	        0.0000000000	        0.0000000000	
        0.1621768556	      -50.9986870296	      641.9316369101	      -17.1875415256	        0.2467858582	        0.0000000000	        0.0518828143	       -0.0277879511	        0.0136285787	        0.0013642524	        0.0000000000	        0.0000000000	        0.0000000000	        0.0000000000	        0.0000000000	        0.0000000000	        0.0000000000	        0.0000000000	        0.0000000000	
        0.1729886460	      -44.6813083475	      626.2288132827	      -17.4720673144	        0.2517926476	        0.0000000000	        0.0517712087	       -0.0240479736	        0.0112687171	        0.0012049195	        0.0000000000	        0.0000000000	        0.0000000000	        0.0000000000	        0.0000000000	        0.0000000000	        0.0000000000	        0.0000000000	        0.0000000000	
        0.1838004364	      -40.1194227872	      615.0765910323	      -18.0527673427	        0.2564829801	        0.0000000000	        0.0516302173	       -0.0268012323	        0.0120629685	        0.0013638557	        0.0000000000	        0.0000000000	        0.0000000000	        0.0000000000	        0.0000000000	        0.0000000000	        0.0000000000	        0.0000000000	        0.0000000000	
        0.1946122267	      -36.2213784704	      607.5723169849	      -18.8562889517	        0.2608648945	        0.0000000000	        0.0514610799	       -0.0373076057	        0.0162107244	        0.0019310630	        0.0000000000	        0.0000000000	        0.0000000000	        0.0000000000	        0.0000000000	        0.0000000000	        0.0000000000	        0.0000000000	        0.0000000000	
        0.2054240171	      -32.5382054006	      601.8057320349	      -19.8438552231	        0.2649612603	        0.0000000000	        0.0512688411	       -0.0612081876	        0.0257950687	        0.0032328274	        0.0000000000	        0.0000000000	        0.0000000000	        0.0000000000	        0.0000000000	        0.0000000000	        0.0000000000	        0.0000000000	        0.0000000000	
        0.2162358075	      -29.0153842699	      596.3841179054	      -20.4155629449	        0.2687403171	        0.0000000000	        0.0510760869	       -0.1107070208	        0.0454384733	        0.0059590961	        0.0000000000	        0.0000000000	        0.0000000000	        0.0000000000	        0.0000000000	        0.0000000000	        0.0000000000	        0.0000000000	        0.0000000000	
        0.2270475979	      -25.5830982982	      590.8438891211	      -20.6065387211	        0.2722168893	        0.0000000000	        0.0508935813	       -0.2064206049	        0.0828210982	        0.0112530232	        0.0000000000	        0.0000000000	        0.0000000000	        0.0000000000	        0.0000000000	        0.0000000000	        0.0000000000	        0.0000000000	        0.0000000000	
        0.2378593882	      -22.1714897315	      584.4278764302	      -20.6874693481	        0.2753923779	        0.0000000000	        0.0507172125	       -0.3743548395	        0.1473582076	        0.0205666549	        0.0000000000	        0.0000000000	        0.0000000000	        0.0000000000	        0.0000000000	        0.0000000000	        0.0000000000	        0.0000000000	        0.0000000000	
        0.2486711786	      -18.5637537241	      577.0634147275	      -20.5422816147	        0.2783001391	        0.0000000000	        0.0505517900	       -0.6379348666	        0.2470491036	        0.0351672611	        0.0000000000	        0.0000000000	        0.0000000000	        0.0000000000	        0.0000000000	        0.0000000000	        0.0000000000	        0.0000000000	        0.0000000000	
        0.2594829690	      -14.8241447095	      569.0304389818	      -20.3035908104	        0.2809470219	        0.0000000000	        0.0503911594	       -1.0105400827	        0.3857659070	        0.0557277245	        0.0000000000	        0.0000000000	        0.0000000000	        0.0000000000	        0.0000000000	        0.0000000000	        0.0000000000	        0.0000000000	        0.0000000000	
        0.2702947594	      -10.9686292507	      560.7473414688	      -19.8435253183	        0.2832576293	        0.0000000000	        0.0502357151	       -1.4746257182	        0.5560071185	        0.0810197905	        0.0000000000	        0.0000000000	        0.0000000000	        0.0000000000	        0.0000000000	        0.0000000000	        0.0000000000	        0.0000000000	        0.0000000000	
        0.2811065497	       -6.6515213340	      554.0666941023	      -19.1722790052	        0.2851104430	        0.0000000000	        0.0500772512	       -1.9579035302	        0.7307739384	        0.1063069106	        0.0000000000	        0.0000000000	        0.0000000000	        0.0000000000	        0.0000000000	        0.0000000000	        0.0000000000	        0.0000000000	        0.0000000000	
        0.2919183401	       -1.6452538817	      549.1795643869	      -18.2765202764	        0.2865725729	        0.0000000000	        0.0499133666	       -2.3353185241	        0.8647175538	        0.1236464883	        0.0000000000	        0.0000000000	        0.0000000000	        0.0000000000	        0.0000000000	        0.0000000000	        0.0000000000	        0.0000000000	        0.0000000000	
        0.3027301305	        3.4742552565	      545.4617275963	      -16.9353152061	        0.2878804490	        0.0000000000	        0.0497551445	       -2.4699134154	        0.9090456318	        0.1250864946	        0.0000000000	        0.0000000000	        0.0000000000	        0.0000000000	        0.0000000000	        0.0000000000	        0.0000000000	        0.0000000000	        0.0000000000	
        0.3135419209	        8.8293372157	      542.9534781412	      -15.1110640038	        0.2890937937	        0.0000000000	        0.0496057133	       -2.2720473553	        0.8324891249	        0.1067885056	        0.0000000000	        0.0000000000	        0.0000000000	        0.0000000000	        0.0000000000	        0.0000000000	        0.0000000000	        0.0000000000	        0.0000000000	
